<svg width="219" height="55" viewBox="0 0 219 55" fill="none" xmlns="http://www.w3.org/2000/svg">
<path d="M0.389269 45.2082C-0.0480602 45.5455 -0.129132 46.1734 0.208157 46.6107L5.70477 53.7373C6.04206 54.1746 6.67001 54.2556 7.10733 53.9184C7.54466 53.5811 7.62573 52.9531 7.28844 52.5158L2.40256 46.1811L8.73726 41.2952C9.17458 40.9579 9.25567 40.33 8.91836 39.8927C8.58107 39.4553 7.95311 39.3743 7.51579 39.7116L0.389269 45.2082ZM217.421 0.283637C182.255 25.2629 152.565 39.5653 119.521 46.0741C86.4561 52.5869 49.9543 51.3128 1.12805 45.0082L0.871943 46.9918C49.7641 53.3048 86.5222 54.6123 119.908 48.0363C153.314 41.4563 183.264 26.9993 218.579 1.91415L217.421 0.283637Z" fill="url(#paint0_linear_5_6)"/>
<defs>
<linearGradient id="paint0_linear_5_6" x1="156.326" y1="67.2236" x2="83.9983" y2="-34.1385" gradientUnits="userSpaceOnUse">
<stop stop-color="#B1B1B1"/>
<stop offset="1" stop-opacity="0"/>
</linearGradient>
</defs>
</svg>
