<svg width="190" height="29" viewBox="0 0 190 29" fill="none" xmlns="http://www.w3.org/2000/svg">
<path d="M189.459 24.6605C189.95 24.4069 190.142 23.8036 189.888 23.313L185.755 15.3184C185.501 14.8278 184.898 14.6357 184.407 14.8894C183.917 15.1431 183.724 15.7464 183.978 16.237L187.652 23.3433L180.546 27.0176C180.056 27.2712 179.863 27.8746 180.117 28.3652C180.371 28.8557 180.974 29.0478 181.465 28.7942L189.459 24.6605ZM1.49575 24.6407C28.6746 9.1259 52.8444 1.97432 81.4831 2.26258C110.17 2.55131 143.397 10.3042 188.697 24.7251L189.303 22.8194C143.974 8.38878 110.506 0.554595 81.5032 0.262676C52.4518 -0.0297245 27.9362 7.24447 0.504245 22.9038L1.49575 24.6407Z" fill="url(#paint0_linear_5_7)"/>
<defs>
<linearGradient id="paint0_linear_5_7" x1="44.7303" y1="-23.1139" x2="109.716" y2="89.9174" gradientUnits="userSpaceOnUse">
<stop stop-color="#B1B1B1"/>
<stop offset="1" stop-opacity="0"/>
</linearGradient>
</defs>
</svg>
